<svg width="20" height="20" viewBox="0 0 20 20" fill="none" xmlns="http://www.w3.org/2000/svg">
<path d="M14.6597 17.388C13.6001 17.388 12.7412 16.529 12.7412 15.4695C12.7412 14.4099 13.6001 13.551 14.6597 13.551C15.7192 13.551 16.5782 14.4099 16.5782 15.4695C16.5782 16.529 15.7192 17.388 14.6597 17.388Z" stroke="black" stroke-width="1.2" stroke-miterlimit="10" stroke-linecap="round" stroke-linejoin="round"/>
<path d="M6.33351 17.388C5.27397 17.388 4.41504 16.529 4.41504 15.4695C4.41504 14.4099 5.27397 13.551 6.33351 13.551C7.39305 13.551 8.25194 14.4099 8.25194 15.4695C8.25194 16.529 7.39305 17.388 6.33351 17.388Z" stroke="black" stroke-width="1.2" stroke-miterlimit="10" stroke-linecap="round" stroke-linejoin="round"/>
<path d="M16.7854 12.0164H6.15704" stroke="black" stroke-width="1.2" stroke-miterlimit="10" stroke-linecap="round" stroke-linejoin="round"/>
<path d="M8.05627 9.64137H16.7854L18.3201 4.34253H7.80695" stroke="black" stroke-width="1.2" stroke-miterlimit="10" stroke-linecap="round" stroke-linejoin="round"/>
<path d="M6.02658 12.0162L5.38965 4.33472" stroke="black" stroke-width="1.2" stroke-miterlimit="10" stroke-linecap="round" stroke-linejoin="round"/>
<path d="M5.38962 4.33482C5.38962 3.4907 4.69897 2.80005 3.85484 2.80005C3.01072 2.80005 2.32007 3.4907 2.32007 4.33482" stroke="black" stroke-width="1.2" stroke-miterlimit="10" stroke-linecap="round" stroke-linejoin="round"/>
</svg>
