<?xml version="1.0" encoding="UTF-8"?>
<svg id="_Слой_2" data-name="Слой 2" xmlns="http://www.w3.org/2000/svg" xmlns:xlink="http://www.w3.org/1999/xlink" viewBox="0 0 90 82">
  <defs>
    <style>
      .cls-1 {
        fill: url(#_Безымянный_градиент_22);
      }

      .cls-2 {
        fill: url(#_Безымянный_градиент_24);
      }

      .cls-3 {
        fill: url(#_Безымянный_градиент_23);
      }
    </style>
    <linearGradient id="_Безымянный_градиент_22" data-name="Безымянный градиент 22" x1="12.83" y1="53.98" x2="59.45" y2="12.34" gradientUnits="userSpaceOnUse">
      <stop offset="0" stop-color="#3355a0"/>
      <stop offset=".65" stop-color="#51a7cd"/>
      <stop offset="1" stop-color="#60d0e4"/>
    </linearGradient>
    <linearGradient id="_Безымянный_градиент_23" data-name="Безымянный градиент 23" x1="65.77" y1="23.66" x2="66.67" y2="79.15" gradientUnits="userSpaceOnUse">
      <stop offset="0" stop-color="#190993"/>
      <stop offset=".33" stop-color="#385492"/>
      <stop offset="1" stop-color="#7cf791"/>
    </linearGradient>
    <linearGradient id="_Безымянный_градиент_24" data-name="Безымянный градиент 24" x1=".51" y1="60.82" x2="68.24" y2="60.82" gradientUnits="userSpaceOnUse">
      <stop offset="0" stop-color="#b459f4"/>
      <stop offset=".68" stop-color="#6632c3"/>
      <stop offset="1" stop-color="#4823b0"/>
    </linearGradient>
  </defs>
  <g id="_Слой_1-2" data-name="Слой 1">
    <g>
      <path class="cls-1" d="m80,25.41h-.01c-5.7-4.63-13.01-7.41-20.99-7.41-3.14,0-6.17.43-9.04,1.23-2.88.81-5.61,1.99-8.11,3.5l-.06.09c-.38.21-.74.45-1.08.74l-6.39,5.37-9.99,8.38c-1.51,1.26-2.38,3.13-2.38,5.1v14.58c0,.71.11,1.4.31,2.04.72,2.4,2.7,4.25,5.17,4.8-1.49-.13-2.94-.35-4.35-.66C10.04,60.41.37,50.96.01,39.64v-.18c.1-3.7,1.79-7.19,4.63-9.58l17.76-14.9,1.11-.93,13.11-11.01c4.84-4.05,11.88-4.05,16.72,0l24.34,20.43,2.32,1.94Z"/>
      <path class="cls-3" d="m90,39.87v28.44c0,7.56-6.13,13.69-13.68,13.69h-31.32c1.43,0,2.82-.15,4.18-.46h.01c9.58-2.06,17.08-11.1,18.54-22.46,0,0,.01,0,.01-.02.12-.41.21-.82.26-1.25.03-.27.05-.54.05-.82v-14.57c0-1.97-.87-3.83-2.38-5.1l-4.38-3.68-12.02-10.08c-.62-.52-1.3-.91-2.02-1.17-1.21-.43-2.51-.51-3.75-.21-.6.13-1.17.34-1.71.64l.06-.09c2.5-1.51,5.23-2.69,8.11-3.5,2.87-.8,5.9-1.23,9.04-1.23,7.98,0,15.29,2.78,20.99,7.42h.01s5.31,4.45,5.31,4.45h.01s.04.04.04.04c1.84,1.54,3.19,3.55,3.95,5.77,0,0,.01.01.01.02.39,1.15.61,2.36.67,3.59.01.2.01.39.01.58Z"/>
      <path class="cls-2" d="m67.73,59.08c-1.46,11.36-8.96,20.4-18.54,22.46h-.01c-1.36.31-2.75.46-4.18.46H13.68c-7.55,0-13.68-6.13-13.68-13.69v-28.47c0-.07,0-.13.01-.2.36,11.32,10.03,20.77,23.07,23.53,1.41.31,2.86.53,4.35.66.05.02.11.03.16.04.44.08.9.13,1.37.13h32.08c3.14,0,5.81-2.07,6.69-4.92Z"/>
    </g>
  </g>
</svg>