<?xml version="1.0" encoding="UTF-8"?>
<svg id="_Слой_2" data-name="Слой 2" xmlns="http://www.w3.org/2000/svg" viewBox="0 0 39.14 39.14">
  <defs>
    <style>
      .cls-1 {
        fill: #4ff;
        stroke: #4ff;
        stroke-miterlimit: 10;
      }
    </style>
  </defs>
  <g id="OBJECTS">
    <g>
      <path class="cls-1" d="m19.57,17.03c2.46,0,4.45-2,4.45-4.45s-2-4.45-4.45-4.45-4.45,2-4.45,4.45,2,4.45,4.45,4.45h0Zm0-7.63c1.75,0,3.18,1.43,3.18,3.18s-1.42,3.18-3.18,3.18-3.18-1.42-3.18-3.18,1.42-3.18,3.18-3.18h0Z"/>
      <path class="cls-1" d="m19.46,35.31l9.75-14.09c3.66-4.88,3.13-12.89-1.13-17.15-2.3-2.3-5.36-3.57-8.62-3.57s-6.32,1.27-8.62,3.57c-4.26,4.26-4.79,12.28-1.15,17.13l9.77,14.1ZM11.74,4.97c2.06-2.06,4.8-3.2,7.72-3.2s5.66,1.14,7.72,3.2c3.85,3.85,4.32,11.08,1,15.51l-8.72,12.6-8.73-12.61c-3.31-4.41-2.83-11.65,1.01-15.49h0Z"/>
      <path class="cls-1" d="m27.27,27.84c-.35-.04-.67.21-.71.56-.04.35.21.66.56.71,6.68.78,10.24,2.9,10.24,4.13,0,1.73-6.77,4.13-17.8,4.13S1.77,34.96,1.77,33.24c0-1.23,3.56-3.35,10.24-4.13.35-.04.6-.36.56-.71-.04-.35-.36-.6-.71-.56-6.69.79-11.37,3.01-11.37,5.4,0,2.69,6.55,5.4,19.07,5.4s19.07-2.72,19.07-5.4c0-2.39-4.67-4.61-11.37-5.4h0Z"/>
    </g>
  </g>
</svg>