<?xml version="1.0" encoding="UTF-8"?>
<svg id="_Слой_2" data-name="Слой 2" xmlns="http://www.w3.org/2000/svg" viewBox="0 0 37.66 37.66">
  <defs>
    <style>
      .cls-1 {
        fill: #4ff;
      }
    </style>
  </defs>
  <g id="OBJECTS">
    <g>
      <path class="cls-1" d="m37.25,14.66l-5.95-4.87v-4.59c0-.61-.49-1.1-1.1-1.1h-5.85L19.65.25c-.4-.33-.99-.33-1.39,0l-4.77,3.85h-6.03c-.61,0-1.1.49-1.1,1.1v4.66L.41,14.65c-.26.21-.41.53-.41.86v21.04c0,.61.49,1.1,1.1,1.1h35.45c.61,0,1.1-.49,1.1-1.1V15.51c0-.33-.15-.64-.4-.85h0Zm-26.59,10.85l-8.45,8.39v-15.93l8.45,7.54Zm1.65,1.47l5.79,5.16c.21.19.47.28.73.28s.52-.09.73-.28l5.79-5.16,8.53,8.47H3.78l8.53-8.47Zm14.69-1.47l8.45-7.54v15.93l-8.45-8.39Zm7.86-9.96l-3.55,3.16v-6.07l3.55,2.91ZM18.95,2.53l1.92,1.57h-3.87l1.95-1.57Zm10.15,3.78v14.37l-10.27,9.16-10.27-9.16V6.3h20.54ZM6.35,18.71l-3.54-3.16,3.54-2.86v6.02Z"/>
      <path class="cls-1" d="m11.96,10.67h13.74c.61,0,1.1-.49,1.1-1.1s-.49-1.1-1.1-1.1h-13.74c-.61,0-1.1.49-1.1,1.1s.49,1.1,1.1,1.1h0Z"/>
      <path class="cls-1" d="m11.96,14.31h4.72c.61,0,1.1-.49,1.1-1.1s-.49-1.1-1.1-1.1h-4.72c-.61,0-1.1.49-1.1,1.1s.49,1.1,1.1,1.1h0Z"/>
      <path class="cls-1" d="m25.7,12.1h-4.72c-.61,0-1.1.49-1.1,1.1s.49,1.1,1.1,1.1h4.72c.61,0,1.1-.49,1.1-1.1s-.49-1.1-1.1-1.1h0Z"/>
      <path class="cls-1" d="m11.96,17.99h4.72c.61,0,1.1-.49,1.1-1.1s-.49-1.1-1.1-1.1h-4.72c-.61,0-1.1.49-1.1,1.1s.49,1.1,1.1,1.1h0Z"/>
      <path class="cls-1" d="m25.7,15.78h-4.72c-.61,0-1.1.49-1.1,1.1s.49,1.1,1.1,1.1h4.72c.61,0,1.1-.49,1.1-1.1s-.49-1.1-1.1-1.1h0Z"/>
      <path class="cls-1" d="m11.96,21.67h13.74c.61,0,1.1-.49,1.1-1.1s-.49-1.1-1.1-1.1h-13.74c-.61,0-1.1.49-1.1,1.1s.49,1.1,1.1,1.1h0Z"/>
    </g>
  </g>
</svg>