<svg width="30" height="30" viewBox="0 0 30 30" fill="none" xmlns="http://www.w3.org/2000/svg">
<path d="M11.1147 2.95611C10.6422 1.77498 9.49827 1.00049 8.22616 1.00049H3.94729C2.31955 1.00049 1 2.31972 1 3.94746C1 17.7833 12.2165 28.9997 26.0523 28.9997C27.6801 28.9997 28.9993 27.6801 28.9993 26.0523L29 21.7728C29 20.5007 28.2257 19.3569 27.0446 18.8844L22.9435 17.2446C21.8826 16.8203 20.6746 17.0112 19.7968 17.7428L18.7383 18.6255C17.5023 19.6556 15.6835 19.5737 14.5457 18.4359L11.5654 15.4529C10.4276 14.3151 10.3436 12.4978 11.3736 11.2617L12.2562 10.2034C12.9878 9.32554 13.1804 8.11722 12.7561 7.05625L11.1147 2.95611Z" stroke="#44FFFF" stroke-width="2" stroke-linecap="round" stroke-linejoin="round"/>
</svg>
